<svg xmlns="http://www.w3.org/2000/svg" viewBox="0 0 1600 360" width="1600" height="360" role="img" aria-labelledby="title desc">
  <title id="title">Transição gráfica ART em movimento</title>
  <desc id="desc">Composição abstrata original de linhas curvas em branco quente sobre fundo preto.</desc>
  <rect width="1600" height="360" fill="#080808"/>
  <g fill="none" stroke="#F2EFE8" stroke-linecap="round" vector-effect="non-scaling-stroke">
  <path d="M -120,285 C 180,245 300,60 520,110 C 760,170 790,310 1030,250 C 1260,195 1370,80 1740,120" opacity="0.220" stroke-width="1.10"/>
  <path d="M -130,279 C 170,241 310,62 530,113 C 770,172 780,307 1020,248 C 1250,193 1380,82 1750,123" opacity="0.245" stroke-width="1.35"/>
  <path d="M -140,273 C 160,237 320,64 540,116 C 780,174 770,304 1010,246 C 1240,191 1390,84 1760,126" opacity="0.270" stroke-width="1.60"/>
  <path d="M -150,267 C 150,233 330,66 550,119 C 790,176 760,301 1000,244 C 1230,189 1400,86 1770,129" opacity="0.295" stroke-width="1.85"/>
  <path d="M -160,261 C 140,229 340,68 560,122 C 800,178 750,298 990,242 C 1220,187 1410,88 1780,132" opacity="0.320" stroke-width="1.10"/>
  <path d="M -170,255 C 130,225 350,70 570,125 C 810,180 740,295 980,240 C 1210,185 1420,90 1790,135" opacity="0.345" stroke-width="1.35"/>
  <path d="M -180,249 C 120,221 360,72 580,128 C 820,182 730,292 970,238 C 1200,183 1430,92 1800,138" opacity="0.370" stroke-width="1.60"/>
  <path d="M -190,243 C 110,217 370,74 590,131 C 830,184 720,289 960,236 C 1190,181 1440,94 1810,141" opacity="0.395" stroke-width="1.85"/>
  <path d="M -200,237 C 100,213 380,76 600,134 C 840,186 710,286 950,234 C 1180,179 1450,96 1820,144" opacity="0.420" stroke-width="1.10"/>
  <path d="M -210,231 C 90,209 390,78 610,137 C 850,188 700,283 940,232 C 1170,177 1460,98 1830,147" opacity="0.445" stroke-width="1.35"/>
  <path d="M -220,225 C 80,205 400,80 620,140 C 860,190 690,280 930,230 C 1160,175 1470,100 1840,150" opacity="0.470" stroke-width="1.60"/>
  <path d="M -230,219 C 70,201 410,82 630,143 C 870,192 680,277 920,228 C 1150,173 1480,102 1850,153" opacity="0.495" stroke-width="1.85"/>
  <path d="M -240,213 C 60,197 420,84 640,146 C 880,194 670,274 910,226 C 1140,171 1490,104 1860,156" opacity="0.520" stroke-width="1.10"/>
  <path d="M -250,207 C 50,193 430,86 650,149 C 890,196 660,271 900,224 C 1130,169 1500,106 1870,159" opacity="0.545" stroke-width="1.35"/>
  <path d="M -260,201 C 40,189 440,88 660,152 C 900,198 650,268 890,222 C 1120,167 1510,108 1880,162" opacity="0.570" stroke-width="1.60"/>
  <path d="M -270,195 C 30,185 450,90 670,155 C 910,200 640,265 880,220 C 1110,165 1520,110 1890,165" opacity="0.595" stroke-width="1.85"/>
  <path d="M -280,189 C 20,181 460,92 680,158 C 920,202 630,262 870,218 C 1100,163 1530,112 1900,168" opacity="0.620" stroke-width="1.10"/>
  <path d="M -290,183 C 10,177 470,94 690,161 C 930,204 620,259 860,216 C 1090,161 1540,114 1910,171" opacity="0.645" stroke-width="1.35"/>
  <path d="M -300,177 C 0,173 480,96 700,164 C 940,206 610,256 850,214 C 1080,159 1550,116 1920,174" opacity="0.670" stroke-width="1.60"/>
  <path d="M -310,171 C -10,169 490,98 710,167 C 950,208 600,253 840,212 C 1070,157 1560,118 1930,177" opacity="0.695" stroke-width="1.85"/>
  <path d="M -320,165 C -20,165 500,100 720,170 C 960,210 590,250 830,210 C 1060,155 1570,120 1940,180" opacity="0.720" stroke-width="1.10"/>
  <path d="M -330,159 C -30,161 510,102 730,173 C 970,212 580,247 820,208 C 1050,153 1580,122 1950,183" opacity="0.745" stroke-width="1.35"/>
  <path d="M -160,35 C 130,70 290,300 540,250 C 820,190 880,45 1120,105 C 1360,165 1460,320 1770,280" opacity="0.180" stroke-width="1.00"/>
  <path d="M -148,40 C 142,74 278,297 528,248 C 808,188 892,47 1132,107 C 1372,167 1448,318 1758,277" opacity="0.205" stroke-width="1.18"/>
  <path d="M -136,45 C 154,78 266,294 516,246 C 796,186 904,49 1144,109 C 1384,169 1436,316 1746,274" opacity="0.230" stroke-width="1.36"/>
  <path d="M -124,50 C 166,82 254,291 504,244 C 784,184 916,51 1156,111 C 1396,171 1424,314 1734,271" opacity="0.255" stroke-width="1.54"/>
  <path d="M -112,55 C 178,86 242,288 492,242 C 772,182 928,53 1168,113 C 1408,173 1412,312 1722,268" opacity="0.280" stroke-width="1.72"/>
  <path d="M -100,60 C 190,90 230,285 480,240 C 760,180 940,55 1180,115 C 1420,175 1400,310 1710,265" opacity="0.305" stroke-width="1.00"/>
  <path d="M -88,65 C 202,94 218,282 468,238 C 748,178 952,57 1192,117 C 1432,177 1388,308 1698,262" opacity="0.330" stroke-width="1.18"/>
  <path d="M -76,70 C 214,98 206,279 456,236 C 736,176 964,59 1204,119 C 1444,179 1376,306 1686,259" opacity="0.355" stroke-width="1.36"/>
  <path d="M -64,75 C 226,102 194,276 444,234 C 724,174 976,61 1216,121 C 1456,181 1364,304 1674,256" opacity="0.380" stroke-width="1.54"/>
  <path d="M -52,80 C 238,106 182,273 432,232 C 712,172 988,63 1228,123 C 1468,183 1352,302 1662,253" opacity="0.405" stroke-width="1.72"/>
  <path d="M -40,85 C 250,110 170,270 420,230 C 700,170 1000,65 1240,125 C 1480,185 1340,300 1650,250" opacity="0.430" stroke-width="1.00"/>
  <path d="M -28,90 C 262,114 158,267 408,228 C 688,168 1012,67 1252,127 C 1492,187 1328,298 1638,247" opacity="0.455" stroke-width="1.18"/>
  <path d="M -16,95 C 274,118 146,264 396,226 C 676,166 1024,69 1264,129 C 1504,189 1316,296 1626,244" opacity="0.480" stroke-width="1.36"/>
  <path d="M -4,100 C 286,122 134,261 384,224 C 664,164 1036,71 1276,131 C 1516,191 1304,294 1614,241" opacity="0.505" stroke-width="1.54"/>
  <path d="M 8,105 C 298,126 122,258 372,222 C 652,162 1048,73 1288,133 C 1528,193 1292,292 1602,238" opacity="0.530" stroke-width="1.72"/>
  <path d="M 20,110 C 310,130 110,255 360,220 C 640,160 1060,75 1300,135 C 1540,195 1280,290 1590,235" opacity="0.555" stroke-width="1.00"/>
  <path d="M 32,115 C 322,134 98,252 348,218 C 628,158 1072,77 1312,137 C 1552,197 1268,288 1578,232" opacity="0.580" stroke-width="1.18"/>
  <path d="M 44,120 C 334,138 86,249 336,216 C 616,156 1084,79 1324,139 C 1564,199 1256,286 1566,229" opacity="0.605" stroke-width="1.36"/>
  </g>
  <rect x="0" y="0" width="1600" height="42" fill="url(#fadeTop)"/>
  <defs>
    <linearGradient id="fadeTop" x1="0" y1="0" x2="0" y2="1">
      <stop offset="0" stop-color="#080808" stop-opacity="1"/>
      <stop offset="1" stop-color="#080808" stop-opacity="0"/>
    </linearGradient>
  </defs>
</svg>
